<svg xmlns="http://www.w3.org/2000/svg" width="48" height="48" style=""><rect id="backgroundrect" width="100%" height="100%" x="0" y="0" fill="none" stroke="none"/><g class="currentLayer" style=""><title>Layer 1</title><path d="M47.49091121665409,20.897292084327248 V12.527282578858845 c-4.240511122704304,0 -7.476690663715482,-1.0462511881835501 -9.565062682791662,-3.079809835638901 a14.188176312807633,13.11497968286422 0 0 1 -3.395597252391042,-8.311065776556653 V0.5322337453178603 L25.96952018037285,0.3406666263546757 s0,0.33892644124255894 0,0.7957403403086165 V34.33646227620609 a7.970885568993052,7.367966113968664 0 1 1 -5.165133848707498,-8.26685797987284 v-8.10476272536553 a16.962044490817217,15.679031890525318 0 0 0 -2.710101093457638,-0.20630305119112272 A16.515674898953602,15.26642578814307 0 1 0 34.60996013716132,33.02496430791966 a16.834510321713324,15.56114443270182 0 0 0 -0.12753416910388896,-1.8714633929480406 V17.67012292640897 A23.083684607803878,21.33762986605325 0 0 0 47.49091121665409,20.897292084327248 z" id="svg_1" class="" fill="#ffffff" fill-opacity="1"/></g></svg>