<svg xmlns="http://www.w3.org/2000/svg" width="24" height="24" style=""><rect id="backgroundrect" width="100%" height="100%" x="0" y="0" fill="none" stroke="none"/><g class="currentLayer" style=""><title>Layer 1</title><path d="M24,5.091759342670441 c-0.8830000000000001,0.39200000000000007 -1.832,0.6560000000000001 -2.8280000000000003,0.775 c1.017,-0.6090000000000001 1.798,-1.574 2.165,-2.724 c-0.9510000000000001,0.5640000000000001 -2.005,0.974 -3.127,1.195 c-0.8970000000000001,-0.9570000000000001 -2.178,-1.5550000000000002 -3.5940000000000003,-1.5550000000000002 c-3.179,0 -5.515,2.966 -4.797,6.045 c-4.091,-0.20500000000000002 -7.719,-2.165 -10.148,-5.144 c-1.29,2.213 -0.6690000000000002,5.108 1.5230000000000001,6.574 c-0.806,-0.026000000000000006 -1.566,-0.24700000000000003 -2.229,-0.6160000000000001 c-0.05400000000000001,2.281 1.581,4.415 3.949,4.890000000000001 c-0.6930000000000002,0.18800000000000003 -1.452,0.232 -2.224,0.08400000000000002 c0.6260000000000001,1.956 2.444,3.379 4.6,3.419 c-2.07,1.6230000000000002 -4.678,2.348 -7.29,2.04 c2.179,1.397 4.768,2.212 7.548,2.212 c9.142,0 14.307,-7.721 13.995,-14.646 c0.9620000000000001,-0.6950000000000002 1.7970000000000002,-1.562 2.457,-2.549 z" id="svg_1" class="selected" fill="#ffffff" fill-opacity="1"/></g></svg>